# xmcd CD database file
#
# Track frame offsets:
#	150
#	13347
#	39076
#	53065
#	73367
#	86543
#	101048
#	114561
#	127417
#	156855
#	171990
#	185366
#	202507
#	226012
#	240644
#	251074
#	263693
#	278279
#	291596
#	312686
#
# Disc length: 4319 seconds
#
# Revision: 0
# Processed by: cddbd v1.5.2PL0 Copyright (c) Steve Scherf et al.
# Submitted via: CDex 1.70beta2
#
DISCID=1f10dd14
DTITLE=Louis Armstrong - Louis Armstrong Signature Collection Cd 3
DYEAR=2007
DGENRE=Jazz
TTITLE0=It Takes Two To Tango
TTITLE1=The Nearness Of You (Duet With Ella Fitzgerald)
TTITLE2=Rockin' Chair
TTITLE3=Loveless Love
TTITLE4=You Won't Be Satisfied (Until You Break My Heart) (Duet With Ella Fitzgerald)
TTITLE5=The Song Is Ended
TTITLE6=Linger In My Arms A Little Longer
TTITLE7=Ko Ko Mo (I Love You So)
TTITLE8=April In Paris (Duet With Ella Fitzgerald)
TTITLE9=Life Is So Peculiar
TTITLE10=I'll Keep The Lovelight Burning (In My Heart)
TTITLE11=Can't We Be Friends (Duet With Ella Fitzgerald)
TTITLE12=That's For Me
TTITLE13=You Can't Lose A Broken Heart (Duet With Billie Holiday)
TTITLE14=Who Walks In When I Walk Out? (Duet With Ella Fitzgerald)
TTITLE15=Darling Nellie Gray
TTITLE16=Can Anyone Explain? (No! No! No!) (Duet With Ella Fitzgerald)
TTITLE17=Fifty-Fifty Blues
TTITLE18=They Can't Take That Away From Me (Duet With Ella Fitzgerald)
TTITLE19=Gone Fishin'
EXTD=YEAR: 2007
EXTT0=
EXTT1=
EXTT2=
EXTT3=
EXTT4=
EXTT5=
EXTT6=
EXTT7=
EXTT8=
EXTT9=
EXTT10=
EXTT11=
EXTT12=
EXTT13=
EXTT14=
EXTT15=
EXTT16=
EXTT17=
EXTT18=
EXTT19=
PLAYORDER=
